# Blender v3.2.2 OBJ File: 'cableMaker50V.blend'
# www.blender.org
mtllib cableMaker50V.mtl
o Chute_Cube.001
v -0.106252 0.440722 -0.143364
v -0.088175 0.422192 -0.118973
v 0.106151 0.440703 -0.143364
v 0.088091 0.422177 -0.118973
v -0.106083 0.440703 -0.143364
v -0.088035 0.422222 -0.118973
v 0.106252 0.440722 -0.143364
v 0.088175 0.422192 -0.118973
v -0.088175 0.422192 0.118973
v -0.106252 0.440722 0.143364
v -0.106083 0.440703 0.143364
v -0.088035 0.422222 0.118973
v 0.088091 0.422177 0.118973
v 0.106151 0.440703 0.143364
v 0.106252 0.440722 0.143364
v 0.088175 0.422192 0.118973
v 0.106252 0.440666 -0.143364
v 0.088175 0.422146 -0.118973
v 0.088175 0.422146 0.118973
v 0.106252 0.440666 0.143364
v -0.106252 0.440642 0.143364
v -0.088175 0.422126 0.118973
v -0.088175 0.422126 -0.118973
v -0.106252 0.440642 -0.143364
v -0.088175 0.440722 -0.118973
v 0.088175 0.440722 -0.118973
v -0.088175 0.440722 0.118973
v 0.088175 0.440722 0.118973
v 0.036865 0.250021 -0.143364
v -0.036797 0.250021 -0.143364
v 0.036865 0.250021 0.143364
v -0.036797 0.250021 0.143364
v 0.036865 0.250021 0.119207
v -0.036797 0.250021 0.119207
v -0.032928 0.250929 -0.143364
v -0.000225 0.263743 -0.143364
v -0.032928 0.250929 0.143364
v -0.000225 0.263743 0.143364
v -0.026698 0.253370 -0.118973
v -0.000225 0.263743 -0.118973
v -0.000225 0.263743 0.118973
v -0.026698 0.253370 0.118973
v 0.034981 0.250021 0.143364
v 0.034960 0.250069 -0.143364
v 0.034981 0.250021 -0.143364
v 0.034981 0.250021 0.119131
v 0.002112 0.262827 -0.143364
v 0.002256 0.262883 -0.143364
v 0.034960 0.250069 0.143364
v 0.002112 0.262827 0.143364
v 0.002112 0.262827 0.118973
v 0.002256 0.262883 0.143364
v 0.002112 0.262827 -0.118973
v 0.002256 0.262883 -0.118973
v 0.026727 0.253295 -0.118973
v 0.002256 0.262883 0.118973
v 0.026727 0.253295 0.118973
v -0.034977 0.250021 -0.143364
v -0.034956 0.250069 -0.143364
v -0.032963 0.250850 -0.143364
v -0.034977 0.250021 0.119133
v -0.034977 0.250021 0.143364
v -0.034956 0.250069 0.143364
v -0.032963 0.250850 0.143364
vt 0.624979 0.249881
vt 0.421881 0.124736
vt 0.624979 0.000199
vt 0.625000 0.250000
vt 0.624936 0.500000
vt 0.624936 0.250000
vt 0.421881 0.625264
vt 0.624979 0.500119
vt 0.624979 0.749801
vt 0.625000 0.750000
vt 0.624908 1.000000
vt 0.624908 0.750000
vt 0.646266 0.521266
vt 0.646266 0.728734
vt 0.853734 0.521266
vt 0.875000 0.500000
vt 0.875000 0.750000
vt 0.625000 0.750000
vt 0.392784 0.750000
vt 0.392784 0.771062
vt 0.625000 0.749895
vt 0.875000 0.750000
vt 0.875000 0.749895
vt 0.625000 0.250000
vt 0.392784 0.478938
vt 0.625000 0.500000
vt 0.875000 0.500175
vt 0.625000 0.500175
vt 0.625000 0.250000
vt 0.625000 0.000000
vt 0.624908 0.000000
vt 0.624979 0.249881
vt 0.624979 0.000199
vt 0.405864 0.124681
vt 0.624936 0.500000
vt 0.624936 0.250000
vt 0.625000 0.500000
vt 0.624979 0.500119
vt 0.625000 0.750000
vt 0.624979 0.749801
vt 0.624908 0.750000
vt 0.404676 0.621802
vt 0.405864 0.625319
vt 0.624908 1.000000
vt 0.625000 1.000000
vt 0.625000 0.500000
vt 0.625000 0.250000
vt 0.625000 0.750000
vt 0.377170 1.000000
vt 0.377169 0.750000
vt 0.875000 0.750000
vt 0.625000 0.749895
vt 0.875000 0.749895
vt 0.625000 0.250000
vt 0.377279 0.500000
vt 0.377279 0.250000
vt 0.875000 0.500175
vt 0.625000 0.500000
vt 0.875000 0.500000
vt 0.625000 0.000000
vt 0.625000 0.750000
vt 0.598603 0.750000
vt 0.618130 0.750000
vt 0.618130 0.750000
vt 0.598604 0.750000
vt 0.618130 0.750000
vt 0.598542 0.750000
vt 0.386365 0.750000
vt 0.598543 0.750000
vt 0.386365 0.750000
vt 0.386365 0.750000
vt 0.375000 0.692423
vt 0.375317 0.989398
vt 0.375317 0.692423
vt 0.375000 0.989398
vt 0.351184 0.964135
vt 0.250000 0.964135
vt 0.241067 0.989398
vt 0.250000 0.989398
vt 0.250000 0.692423
vt 0.241067 0.717685
vt 0.250000 0.717685
vt 0.250000 0.964135
vt 0.250550 0.989398
vt 0.250550 0.964135
vt 0.250000 0.692423
vt 0.250550 0.717685
vt 0.250550 0.692423
vt 0.125000 0.692423
vt 0.125000 0.989398
vt 0.156469 0.717685
vt 0.124805 0.964299
vt 0.124805 0.989398
vt 0.375000 0.989398
vt 0.375195 0.964301
vt 0.375000 0.692423
vt 0.367381 0.692423
vt 0.367381 0.989398
vt 0.406132 0.168370
vt 0.420894 0.127654
vt 0.406132 0.166153
vt 0.406188 0.166128
vt 0.625000 0.000000
vt 0.624908 0.000000
vt 0.406132 0.083851
vt 0.406132 0.081710
vt 0.406188 0.083876
vt 0.407174 0.086261
vt 0.407084 0.086221
vt 0.420830 0.127485
vt 0.625000 0.500000
vt 0.406188 0.583871
vt 0.406132 0.583846
vt 0.406132 0.581630
vt 0.420894 0.622346
vt 0.420830 0.622515
vt 0.406132 0.668290
vt 0.407174 0.663739
vt 0.406132 0.666149
vt 0.406188 0.666124
vt 0.407084 0.663779
vt 0.625000 1.000000
vt 0.853733 0.728734
vt 0.392784 1.000000
vt 0.625000 1.000000
vt 0.392784 0.250000
vt 0.392784 0.500000
vt 0.875000 0.500000
vt 0.404676 0.128198
vt 0.391417 0.162889
vt 0.391520 0.087153
vt 0.404598 0.127995
vt 0.391520 0.662847
vt 0.391417 0.587111
vt 0.404598 0.622005
vt 0.625000 1.000000
vt 0.625000 0.500175
vt 0.625000 1.000000
vt 0.618130 0.750000
vt 0.386365 0.750000
vt 0.351184 0.717685
vt 0.241067 0.964135
vt 0.241067 0.692423
vt 0.250000 0.989398
vt 0.250000 0.717685
vt 0.156469 0.964135
vt 0.124805 0.692423
vt 0.375195 0.989398
vt 0.375195 0.692423
vn 0.0000 0.0000 -1.0000
vn 1.0000 0.0000 0.0000
vn 0.0000 0.0000 1.0000
vn -1.0000 0.0000 0.0000
vn 0.0000 1.0000 -0.0000
vn 0.9399 -0.3415 0.0000
vn -0.3424 -0.9395 0.0000
vn -0.9399 -0.3415 0.0000
vn 0.3423 -0.9396 0.0000
vn -0.0002 0.0000 -1.0000
vn -0.9399 0.3415 0.0000
vn 0.3426 0.9395 0.0000
vn 0.9399 0.3414 0.0000
vn -0.5659 0.8245 0.0000
vn 0.0000 -1.0000 0.0000
vn 0.9160 -0.4011 0.0000
vn 0.3648 -0.9311 0.0000
vn -0.3648 -0.9311 0.0000
vn 0.3649 -0.9310 -0.0000
vn -0.9160 -0.4012 0.0000
vn 0.9160 -0.4012 0.0000
vn 0.0002 0.0000 -1.0000
vn -0.0001 0.0000 -1.0000
vn 0.0001 0.0000 -1.0000
vn 0.0001 0.0000 1.0000
vn -0.0001 0.0000 1.0000
vn -0.3424 -0.9396 0.0000
vn 0.3424 -0.9396 0.0000
vn 0.3425 0.9395 0.0000
vn -0.9160 -0.4011 0.0000
usemtl None
s off
f 3/1/1 36/2/1 5/3/1
f 7/4/2 20/5/2 17/6/2
f 38/7/3 14/8/3 11/9/3
f 10/10/4 24/11/4 21/12/4
f 10/10/5 28/13/5 27/14/5
f 26/15/5 7/16/5 1/17/5
f 14/18/6 31/19/6 33/20/6
f 20/21/7 3/22/7 17/23/7
f 5/24/8 34/25/8 11/26/8
f 24/27/9 11/26/9 21/28/9
f 8/29/3 2/30/3 23/31/3
f 4/32/3 6/33/3 40/34/3
f 8/29/1 23/31/1 6/33/1
f 19/35/4 8/29/4 18/36/4
f 16/37/1 13/38/1 9/39/1
f 12/40/10 22/41/10 9/39/10
f 13/38/1 56/42/1 41/43/1
f 13/38/3 12/40/3 9/39/3
f 9/39/2 23/44/2 2/45/2
f 8/29/4 28/46/4 26/47/4
f 13/48/11 55/49/11 57/50/11
f 4/51/12 19/52/12 18/53/12
f 6/54/13 42/55/13 39/56/13
f 23/57/14 12/58/14 6/59/14
f 2/30/3 26/47/3 25/60/3
f 2/45/2 27/61/2 9/39/2
f 9/39/1 28/46/1 16/37/1
f 34/62/15 62/63/15 32/64/15
f 33/65/15 43/66/15 46/67/15
f 30/68/15 61/69/15 34/62/15
f 29/70/15 46/67/15 45/71/15
f 35/72/16 64/73/16 60/74/16
f 37/75/17 35/72/17 42/76/17
f 41/77/18 50/78/18 38/79/18
f 36/80/18 53/81/18 40/82/18
f 56/83/19 50/84/19 51/85/19
f 48/86/19 53/87/19 47/88/19
f 44/89/18 49/90/18 55/91/18
f 46/92/20 43/93/20 49/90/20
f 63/94/21 61/95/21 59/96/21
f 63/94/17 60/97/17 64/98/17
f 7/4/22 17/6/22 3/1/22
f 3/1/1 29/99/1 48/100/1
f 29/99/1 45/101/1 44/102/1
f 29/99/1 44/102/1 48/100/1
f 1/103/1 7/4/1 5/3/1
f 7/4/1 3/1/1 5/3/1
f 5/3/23 24/104/23 1/103/23
f 58/105/1 30/106/1 59/107/1
f 30/106/1 5/3/1 35/108/1
f 59/107/1 30/106/1 35/108/1
f 35/108/24 60/109/24 59/107/24
f 48/100/24 47/110/24 36/2/24
f 3/1/1 48/100/1 36/2/1
f 36/2/1 35/108/1 5/3/1
f 7/4/2 15/111/2 20/5/2
f 49/112/3 43/113/3 31/114/3
f 14/8/3 20/5/3 15/111/3
f 49/112/3 31/114/3 52/115/3
f 31/114/3 14/8/3 52/115/3
f 38/7/25 50/116/25 52/115/25
f 14/8/3 15/111/3 11/9/3
f 15/111/3 10/10/3 11/9/3
f 10/10/26 21/12/26 11/9/26
f 11/9/3 32/117/3 37/118/3
f 32/117/3 62/119/3 63/120/3
f 63/120/25 64/121/25 37/118/25
f 32/117/3 63/120/3 37/118/3
f 38/7/3 52/115/3 14/8/3
f 37/118/3 38/7/3 11/9/3
f 10/10/4 1/122/4 24/11/4
f 10/10/5 15/111/5 28/13/5
f 26/15/5 28/13/5 15/111/5
f 1/17/5 10/10/5 27/14/5
f 1/17/5 27/14/5 25/123/5
f 26/15/5 15/111/5 7/16/5
f 1/17/5 25/123/5 26/15/5
f 29/124/6 3/125/6 33/20/6
f 3/125/6 14/18/6 33/20/6
f 20/21/27 14/18/27 3/22/27
f 30/126/8 34/25/8 5/24/8
f 34/25/8 32/127/8 11/26/8
f 24/27/28 5/128/28 11/26/28
f 54/129/3 55/130/3 4/32/3
f 4/32/3 18/36/3 8/29/3
f 6/33/3 39/131/3 40/34/3
f 40/34/3 53/132/3 54/129/3
f 4/32/3 8/29/3 6/33/3
f 40/34/3 54/129/3 4/32/3
f 19/35/4 16/37/4 8/29/4
f 16/37/24 19/35/24 13/38/24
f 41/43/1 42/133/1 12/40/1
f 12/40/1 13/38/1 41/43/1
f 13/38/1 57/134/1 56/42/1
f 56/42/23 51/135/23 41/43/23
f 9/39/2 22/41/2 23/44/2
f 8/29/4 16/37/4 28/46/4
f 13/48/11 4/136/11 55/49/11
f 4/51/29 13/48/29 19/52/29
f 6/54/13 12/58/13 42/55/13
f 23/57/14 22/137/14 12/58/14
f 2/30/3 8/29/3 26/47/3
f 2/45/2 25/138/2 27/61/2
f 9/39/1 27/61/1 28/46/1
f 34/62/15 61/69/15 62/63/15
f 33/65/15 31/139/15 43/66/15
f 30/68/15 58/140/15 61/69/15
f 29/70/15 33/65/15 46/67/15
f 35/72/21 37/75/21 64/73/21
f 42/76/17 41/77/17 38/79/17
f 35/72/17 36/80/17 39/141/17
f 36/80/17 40/82/17 39/141/17
f 42/76/17 38/79/17 37/75/17
f 35/72/17 39/141/17 42/76/17
f 41/77/18 51/142/18 50/78/18
f 36/80/18 47/143/18 53/81/18
f 56/83/19 52/144/19 50/84/19
f 48/86/19 54/145/19 53/87/19
f 49/90/18 52/144/18 57/146/18
f 52/144/18 56/83/18 57/146/18
f 54/145/18 48/86/18 55/91/18
f 48/86/18 44/89/18 55/91/18
f 49/90/18 57/146/18 55/91/18
f 49/90/20 44/89/20 46/92/20
f 44/89/30 45/147/30 46/92/30
f 62/148/16 61/95/16 63/94/16
f 61/95/16 58/149/16 59/96/16
f 63/94/17 59/96/17 60/97/17
o main
v -0.035355 0.250644 -0.500000
v -0.125000 0.370326 -0.500000
v 0.125000 -0.470344 -0.500000
v -0.125000 -0.470344 -0.500000
v -0.125000 0.370326 -0.500000
v 0.125000 0.370326 -0.500000
v 0.125000 0.370326 -0.375000
v -0.125000 0.370326 -0.375000
v 0.125000 -0.470344 0.497943
v 0.125000 -0.470344 0.500000
v -0.125000 -0.470344 0.500000
v -0.125000 0.370326 0.375000
v 0.125000 0.370326 0.375000
v 0.125000 0.370326 0.500000
v -0.125000 0.370326 0.500000
v -0.062500 0.430374 -0.500000
v 0.062500 0.430374 -0.500000
v 0.062500 0.430374 -0.375000
v -0.062500 0.430374 -0.375000
v -0.062500 0.430374 0.375000
v 0.062500 0.430374 0.375000
v 0.062500 0.430374 0.500000
v -0.062500 0.430374 0.500000
v -0.035355 0.250644 -0.500000
v 0.035355 0.250644 -0.500000
v 0.000000 0.264520 -0.500000
v -0.050000 0.217146 -0.500110
v -0.035355 0.183648 -0.500110
v -0.035355 0.250644 -0.500158
v 0.050000 0.217146 -0.500110
v 0.035355 0.183648 -0.500110
v 0.035355 0.250644 -0.500238
v 0.000000 0.264520 -0.499910
v -0.000000 0.169772 -0.500110
v -0.050000 0.217146 0.500000
v -0.035355 0.250644 0.500000
v -0.035355 0.183648 0.500000
v 0.050000 0.217146 0.500000
v 0.035355 0.183648 0.500000
v 0.035355 0.250644 0.500000
v 0.000000 0.264520 0.500000
v -0.000000 0.169772 0.500000
v 0.049818 0.217562 0.500000
v 0.035537 0.184063 0.500000
v -0.034916 0.183475 0.500000
v 0.000439 0.169944 0.500000
v 0.000500 0.169968 0.498233
v -0.034856 0.183452 0.498233
v 0.035562 0.184121 0.498233
v 0.049793 0.217619 0.498233
v 0.125000 -0.470344 -0.499287
v 0.023126 0.259820 -0.300270
v 0.035355 0.183648 -0.500000
v -0.000000 0.169772 -0.500000
v 0.050000 0.217146 -0.500000
v 0.035355 0.250644 -0.500000
v -0.050000 0.217146 -0.500000
v 0.125000 0.370326 -0.500000
v -0.035355 0.183648 -0.500000
v 0.125000 0.370326 0.372531
v -0.125000 0.370326 0.372531
v 0.062500 0.430374 0.372531
v -0.062500 0.430374 0.372531
v -0.062500 0.430374 0.500000
v 0.062500 0.430374 0.500000
v -0.125000 0.370326 0.500000
v 0.125000 0.370326 0.500000
v -0.125000 0.370326 0.500000
v 0.125000 0.370326 0.500000
v 0.062500 0.430374 0.500000
v -0.062500 0.430374 0.500000
v -0.035355 0.250644 -0.500000
v 0.000000 0.264520 -0.500000
v 0.003876 0.370326 -0.500000
v 0.035355 0.250644 0.120573
v -0.035355 0.250644 0.120599
v 0.000000 0.264520 0.119212
v 0.027001 0.253923 0.119957
v 0.035355 0.250644 -0.276061
v -0.035355 0.250644 -0.281168
v 0.000000 0.264520 -0.273632
v 0.000000 0.264520 -0.122196
v 0.035256 0.250283 -0.125110
v -0.035355 0.250644 -0.121785
v 0.062500 0.430374 -0.127259
v -0.062500 0.430374 -0.128033
v 0.062500 0.430374 0.128637
v -0.062500 0.430374 0.127861
v 0.062500 0.430374 -0.135202
v 0.088822 0.410214 0.137918
v 0.086330 0.410922 -0.139381
v -0.062500 0.430374 0.132253
v -0.085851 0.407939 -0.140116
v -0.085178 0.408585 0.137199
vt 0.939438 0.500000
vt 0.919822 0.437716
vt 0.875000 0.500000
vt 1.000000 0.062500
vt 0.937500 0.500000
vt 0.937500 0.062500
vt 0.892678 0.402849
vt 0.875000 0.395628
vt 0.656250 0.375000
vt 0.593750 0.406250
vt 0.593750 0.375000
vt 0.843750 0.062500
vt 0.799019 0.403066
vt 0.798928 0.402849
vt 0.718750 0.500000
vt 0.763572 0.437716
vt 0.781250 0.444937
vt 0.656250 0.375000
vt 0.656250 0.406250
vt 0.656250 0.406250
vt 0.656250 0.468750
vt 0.656250 0.406250
vt 0.593750 0.500000
vt 0.656250 0.500000
vt 0.595688 0.343750
vt 0.562500 0.375000
vt 0.625000 0.375000
vt 0.656250 0.479242
vt 0.656250 0.500000
vt 0.843750 0.062500
vt 0.843750 0.500000
vt 0.843750 0.500000
vt 0.812500 0.500000
vt 0.812500 0.500000
vt 0.718750 0.500000
vt 0.843750 0.500000
vt 0.843750 0.500000
vt 0.656250 0.468750
vt 0.656250 0.468750
vt 0.843750 0.062500
vt 0.843750 0.000000
vt 0.937500 0.000000
vt 0.875000 0.993793
vt 0.876552 0.993794
vt 0.876767 0.992932
vt 0.875000 0.932845
vt 0.750000 0.932845
vt 0.750000 0.993793
vt 0.751767 0.992932
vt 0.751552 0.993793
vt 0.625000 0.993793
vt 0.626552 0.993793
vt 0.626767 0.992932
vt 0.625000 0.932845
vt 0.500000 0.993793
vt 0.500000 0.932845
vt 0.375000 0.946746
vt 0.375000 0.956085
vt 0.250000 0.947212
vt 0.125000 0.956323
vt 0.250000 0.956433
vt 0.000000 0.993793
vt 0.001552 0.993793
vt 0.001767 0.992932
vt 0.000000 0.932845
vt 0.843750 0.062500
vt 0.656250 0.500000
vt 0.656250 0.394574
vt 0.656250 0.406250
vt 0.656250 0.468750
vt 0.656250 0.468750
vt 0.656250 0.343750
vt 0.562500 0.375000
vt 0.531250 0.343750
vt 0.562500 0.375000
vt 0.625000 0.375000
vt 0.562500 0.375000
vt 0.562500 0.375000
vt 0.593750 0.406250
vt 0.656250 0.406250
vt 0.937500 0.444937
vt 0.919822 0.437716
vt 0.955178 0.437716
vt 0.937500 0.444937
vt 0.375000 0.970673
vt 0.250000 0.993793
vt 0.375000 0.993793
vt 0.154538 0.970634
vt 0.125000 0.993793
vt 0.250000 0.932845
vt 0.375000 0.932845
vt 0.125000 0.947074
vt 0.656250 0.406250
vt 1.000000 0.500000
vt 0.937500 0.500000
vt 0.850000 0.420282
vt 0.857322 0.437716
vt 0.812500 0.500000
vt 0.812500 0.062500
vt 0.857322 0.402849
vt 0.892678 0.437716
vt 0.900000 0.420282
vt 0.756250 0.420282
vt 0.718750 0.062500
vt 0.781250 0.395628
vt 0.763572 0.402849
vt 0.843750 0.500000
vt 0.798928 0.437716
vt 0.806159 0.420499
vt 0.806250 0.420282
vt 0.763792 0.402760
vt 0.781470 0.395718
vt 0.656250 0.375000
vt 0.593750 0.468750
vt 0.656250 0.343750
vt 0.531250 0.343750
vt 0.656250 0.478873
vt 0.656250 0.468750
vt 0.781250 0.062500
vt 0.781250 0.500000
vt 0.937500 0.500000
vt 0.718750 0.500000
vt 1.000000 0.993793
vt 1.000000 0.932845
vt 0.125000 0.970674
vt 0.125000 0.932845
vt 0.656250 0.394911
vt 0.625000 0.375000
vt 0.625000 0.375000
vt 0.656250 0.468750
vt 0.656250 0.468750
vt 0.656250 0.406250
vt 1.000000 0.500000
vt 0.250000 0.970583
vt 0.656250 0.406250
vn 0.0000 0.0000 -1.0000
vn -1.0000 0.0000 0.0000
vn -0.6928 0.7211 -0.0000
vn 0.0000 0.0000 1.0000
vn 0.0000 1.0000 0.0000
vn 0.6928 0.7211 -0.0000
vn 0.7407 0.6718 0.0000
vn 1.0000 0.0000 -0.0000
vn 0.0000 -1.0000 0.0000
vn -0.9163 0.4006 -0.0000
vn -0.3654 0.9309 0.0000
vn 0.3654 0.9309 0.0000
vn 0.3653 0.9309 0.0000
vn 0.9163 0.4006 0.0000
vn 0.9163 -0.4006 0.0000
vn -0.3744 -0.9272 0.0000
vn 0.3653 -0.9309 0.0000
vn -0.9163 -0.4006 0.0000
vn -0.9136 -0.4065 0.0000
vn -0.3653 -0.9309 0.0000
vn 0.6928 0.7211 -0.0105
vn 0.6323 0.7747 0.0000
vn 0.6080 0.7939 0.0000
vn 0.6927 0.7210 0.0158
vn 0.7106 0.7035 -0.0046
vn -0.3653 0.9309 0.0000
vn -0.3655 -0.9308 -0.0025
vn -0.9202 -0.3915 0.0009
vn -0.9200 -0.3919 -0.0015
usemtl Material.001
s off
f 138/150/31 88/151/31 69/152/31
f 75/153/32 76/154/32 68/155/32
f 68/155/31 123/156/31 118/157/31
f 72/158/33 80/159/33 69/160/33
f 74/161/34 108/162/34 103/163/34
f 79/164/34 100/165/34 105/166/34
f 125/167/33 135/168/33 127/169/33
f 82/170/35 80/159/35 83/171/35
f 70/172/36 82/170/36 71/173/36
f 138/174/31 80/175/31 81/176/31
f 71/173/37 154/177/37 124/178/37
f 115/179/38 122/180/38 77/181/38
f 76/154/35 131/182/35 77/183/35
f 124/184/39 132/185/39 125/186/39
f 127/169/35 134/187/35 126/188/35
f 73/189/39 74/190/39 75/191/39
f 103/192/40 108/193/40 113/194/40
f 95/195/40 103/192/40 113/194/40
f 98/196/41 106/197/41 111/198/41
f 106/197/41 110/199/41 111/198/41
f 101/200/42 109/201/42 112/202/42
f 92/203/43 101/200/43 112/202/43
f 92/203/44 99/204/44 101/200/44
f 91/205/45 144/206/45 148/207/45
f 145/208/46 147/209/46 146/210/46
f 145/208/47 148/207/47 144/206/47
f 102/211/48 107/212/48 114/213/48
f 94/214/49 102/211/49 147/209/49
f 115/179/39 68/155/39 67/215/39
f 126/188/36 133/216/36 124/178/36
f 72/158/33 125/167/33 157/217/33
f 150/218/35 149/219/35 153/220/35
f 133/221/34 135/222/34 132/223/34
f 87/224/34 129/225/34 128/226/34
f 85/227/35 84/228/35 128/229/35
f 88/151/34 137/230/34 136/231/34
f 138/150/31 89/232/31 90/233/31
f 140/234/47 105/235/47 100/236/47
f 142/237/50 104/238/50 105/235/50
f 97/239/47 144/206/47 93/240/47
f 97/239/50 143/241/50 145/208/50
f 156/242/35 127/169/35 126/188/35
f 138/150/31 90/233/31 88/151/31
f 115/179/39 73/189/39 68/155/39
f 73/189/39 75/153/39 68/155/39
f 75/153/32 79/243/32 76/154/32
f 76/154/32 66/244/32 68/155/32
f 119/245/31 120/246/31 122/247/31
f 122/247/31 67/248/31 119/245/31
f 67/248/31 68/155/31 118/157/31
f 119/245/31 67/248/31 117/249/31
f 66/244/31 65/250/31 121/251/31
f 66/244/31 121/251/31 68/155/31
f 121/251/31 123/156/31 68/155/31
f 117/249/31 67/248/31 118/157/31
f 72/158/33 83/171/33 80/159/33
f 99/252/34 100/165/34 79/164/34
f 79/164/34 75/253/34 99/252/34
f 75/253/34 74/161/34 106/254/34
f 99/252/34 75/253/34 101/255/34
f 78/256/34 104/257/34 107/258/34
f 78/256/34 107/258/34 102/259/34
f 101/255/34 75/253/34 109/260/34
f 109/260/34 75/253/34 106/254/34
f 74/161/34 78/256/34 102/259/34
f 74/161/34 102/259/34 108/162/34
f 103/163/34 110/261/34 74/161/34
f 110/261/34 106/254/34 74/161/34
f 105/166/34 104/257/34 78/256/34
f 78/256/34 79/164/34 105/166/34
f 125/167/33 132/262/33 135/168/33
f 82/170/35 81/263/35 80/159/35
f 70/172/36 81/263/36 82/170/36
f 81/176/31 70/264/31 138/174/31
f 138/174/31 69/265/31 80/175/31
f 71/173/51 82/170/51 155/266/51
f 82/170/52 153/220/52 155/266/52
f 151/267/53 126/188/53 154/177/53
f 126/188/54 124/178/54 154/177/54
f 71/173/55 155/266/55 154/177/55
f 74/268/38 73/189/38 78/269/38
f 73/189/38 115/179/38 77/181/38
f 115/179/38 67/215/38 122/180/38
f 77/181/38 78/269/38 73/189/38
f 76/154/35 130/270/35 131/182/35
f 124/184/39 133/271/39 132/185/39
f 127/169/35 135/168/35 134/187/35
f 113/194/40 108/193/40 102/272/40
f 102/272/40 94/273/40 113/194/40
f 94/273/40 95/195/40 113/194/40
f 111/198/56 110/199/56 103/192/56
f 103/192/56 95/195/56 111/198/56
f 95/195/56 98/196/56 111/198/56
f 112/202/43 109/201/43 106/197/43
f 106/197/43 98/196/43 112/202/43
f 98/196/43 92/203/43 112/202/43
f 92/203/44 91/205/44 99/204/44
f 100/236/45 99/204/45 140/234/45
f 99/204/45 91/205/45 140/234/45
f 91/205/45 93/240/45 144/206/45
f 148/207/45 140/234/45 91/205/45
f 145/208/57 143/241/57 147/209/57
f 145/208/47 146/210/47 148/207/47
f 114/213/48 107/212/48 104/238/48
f 104/238/48 139/274/48 114/213/48
f 139/274/58 147/209/58 102/211/58
f 114/213/48 139/274/48 102/211/48
f 147/209/59 143/241/59 94/214/59
f 143/241/48 96/275/48 94/214/48
f 126/188/36 134/187/36 133/216/36
f 150/218/33 83/171/33 157/217/33
f 83/171/33 72/158/33 157/217/33
f 125/167/33 127/169/33 158/276/33
f 127/169/33 156/242/33 158/276/33
f 125/167/33 158/276/33 157/217/33
f 153/220/35 82/170/35 83/171/35
f 83/171/35 150/218/35 153/220/35
f 133/221/34 134/277/34 135/222/34
f 87/224/34 86/278/34 129/225/34
f 129/279/34 86/280/34 85/227/34
f 84/228/34 87/281/34 128/229/34
f 128/229/35 129/279/35 85/227/35
f 88/151/34 90/233/34 137/230/34
f 138/150/31 70/282/31 89/232/31
f 140/234/47 141/283/47 105/235/47
f 105/235/50 141/283/50 142/237/50
f 142/237/50 139/274/50 104/238/50
f 97/239/47 145/208/47 144/206/47
f 97/239/50 96/275/50 143/241/50
f 126/188/35 151/267/35 156/242/35
f 151/267/35 152/284/35 156/242/35
o Minecraft_Block_Cube
v 0.500000 -0.500000 0.500000
v -0.500000 -0.500000 0.500000
v -0.500000 -0.500000 -0.500000
v 0.500000 -0.500000 -0.500000
v 0.500000 0.500000 0.500000
v -0.500000 0.500000 0.500000
v -0.500000 0.500000 -0.500000
v 0.500000 0.500000 -0.500000
vn 0.0000 -1.0000 -0.0000
vn 0.0000 1.0000 0.0000
vn 0.0000 -0.0000 1.0000
vn -1.0000 -0.0000 -0.0000
vn 0.0000 -0.0000 -1.0000
vn 1.0000 0.0000 0.0000
usemtl Material
s off
f 160//60 162//60 159//60
f 166//61 164//61 163//61
f 163//62 160//62 159//62
f 164//63 161//63 160//63
f 165//64 162//64 161//64
f 159//65 166//65 163//65
f 160//60 161//60 162//60
f 166//61 165//61 164//61
f 163//62 164//62 160//62
f 164//63 165//63 161//63
f 165//64 166//64 162//64
f 159//65 162//65 166//65
