# Blender v3.2.2 OBJ File: 'cableMaker50V.blend'
# www.blender.org
mtllib cableMaker50V.mtl
o Chute_Cube.001
v -0.143364 0.440722 0.106252
v -0.118973 0.422192 0.088175
v -0.143364 0.440703 -0.106151
v -0.118973 0.422177 -0.088091
v -0.143364 0.440703 0.106083
v -0.118973 0.422222 0.088035
v -0.143364 0.440722 -0.106252
v -0.118973 0.422192 -0.088175
v 0.118973 0.422192 0.088175
v 0.143364 0.440722 0.106252
v 0.143364 0.440703 0.106083
v 0.118973 0.422222 0.088035
v 0.118973 0.422177 -0.088091
v 0.143364 0.440703 -0.106151
v 0.143364 0.440722 -0.106252
v 0.118973 0.422192 -0.088175
v -0.143364 0.440666 -0.106252
v -0.118973 0.422146 -0.088175
v 0.118973 0.422146 -0.088175
v 0.143364 0.440666 -0.106252
v 0.143364 0.440642 0.106252
v 0.118973 0.422126 0.088175
v -0.118973 0.422126 0.088175
v -0.143364 0.440642 0.106252
v -0.118973 0.440722 0.088175
v -0.118973 0.440722 -0.088175
v 0.118973 0.440722 0.088175
v 0.118973 0.440722 -0.088175
v -0.143364 0.250021 -0.036865
v -0.143364 0.250021 0.036797
v 0.143364 0.250021 -0.036865
v 0.143364 0.250021 0.036797
v 0.119207 0.250021 -0.036865
v 0.119207 0.250021 0.036797
v -0.143364 0.250929 0.032928
v -0.143364 0.263743 0.000225
v 0.143364 0.250929 0.032928
v 0.143364 0.263743 0.000225
v -0.118973 0.253370 0.026698
v -0.118973 0.263743 0.000225
v 0.118973 0.263743 0.000225
v 0.118973 0.253370 0.026698
v 0.143364 0.250021 -0.034981
v -0.143364 0.250069 -0.034960
v -0.143364 0.250021 -0.034981
v 0.119131 0.250021 -0.034981
v -0.143364 0.262827 -0.002112
v -0.143364 0.262883 -0.002256
v 0.143364 0.250069 -0.034960
v 0.143364 0.262827 -0.002112
v 0.118973 0.262827 -0.002112
v 0.143364 0.262883 -0.002256
v -0.118973 0.262827 -0.002112
v -0.118973 0.262883 -0.002256
v -0.118973 0.253295 -0.026727
v 0.118973 0.262883 -0.002256
v 0.118973 0.253295 -0.026727
v -0.143364 0.250021 0.034977
v -0.143364 0.250069 0.034956
v -0.143364 0.250850 0.032963
v 0.119133 0.250021 0.034977
v 0.143364 0.250021 0.034977
v 0.143364 0.250069 0.034956
v 0.143364 0.250850 0.032963
vt 0.624936 0.250000
vt 0.624979 0.249881
vt 0.406132 0.168370
vt 0.406132 0.166153
vt 0.406188 0.166128
vt 0.420894 0.127654
vt 0.420830 0.127485
vt 0.421881 0.124736
vt 0.407174 0.086261
vt 0.407084 0.086221
vt 0.406188 0.083876
vt 0.406132 0.083851
vt 0.406132 0.081710
vt 0.624979 0.000199
vt 0.624908 0.000000
vt 0.625000 0.000000
vt 0.625000 0.250000
vt 0.625000 0.500000
vt 0.624936 0.500000
vt 0.406188 0.583871
vt 0.406132 0.583846
vt 0.406132 0.581630
vt 0.624979 0.500119
vt 0.625000 0.750000
vt 0.624908 0.750000
vt 0.624979 0.749801
vt 0.406132 0.668290
vt 0.406132 0.666149
vt 0.406188 0.666124
vt 0.407084 0.663779
vt 0.407174 0.663739
vt 0.421881 0.625264
vt 0.420830 0.622515
vt 0.420894 0.622346
vt 0.625000 1.000000
vt 0.624908 1.000000
vt 0.646266 0.728734
vt 0.646266 0.521266
vt 0.853734 0.521266
vt 0.875000 0.500000
vt 0.875000 0.750000
vt 0.853733 0.728734
vt 0.625000 1.000000
vt 0.625000 0.750000
vt 0.392784 0.750000
vt 0.392784 0.771062
vt 0.392784 1.000000
vt 0.875000 0.749895
vt 0.625000 0.749895
vt 0.875000 0.750000
vt 0.392784 0.478938
vt 0.392784 0.500000
vt 0.625000 0.500000
vt 0.625000 0.250000
vt 0.392784 0.250000
vt 0.625000 0.500175
vt 0.875000 0.500175
vt 0.875000 0.500000
vt 0.625000 0.250000
vt 0.625000 0.000000
vt 0.624908 0.000000
vt 0.404676 0.128198
vt 0.391417 0.162889
vt 0.624979 0.249881
vt 0.624936 0.250000
vt 0.624979 0.000199
vt 0.391520 0.087153
vt 0.405864 0.124681
vt 0.404598 0.127995
vt 0.624936 0.500000
vt 0.625000 0.500000
vt 0.624979 0.500119
vt 0.625000 0.750000
vt 0.624979 0.749801
vt 0.624908 0.750000
vt 0.405864 0.625319
vt 0.391520 0.662847
vt 0.391417 0.587111
vt 0.404676 0.621802
vt 0.404598 0.622005
vt 0.625000 1.000000
vt 0.624908 1.000000
vt 0.625000 0.250000
vt 0.625000 0.500000
vt 0.377169 0.750000
vt 0.625000 0.750000
vt 0.625000 1.000000
vt 0.377170 1.000000
vt 0.875000 0.749895
vt 0.875000 0.750000
vt 0.625000 0.749895
vt 0.377279 0.250000
vt 0.625000 0.250000
vt 0.625000 0.500000
vt 0.377279 0.500000
vt 0.875000 0.500000
vt 0.875000 0.500175
vt 0.625000 0.500175
vt 0.625000 0.000000
vt 0.625000 1.000000
vt 0.625000 0.750000
vt 0.618130 0.750000
vt 0.598603 0.750000
vt 0.598543 0.750000
vt 0.618130 0.750000
vt 0.598542 0.750000
vt 0.598604 0.750000
vt 0.618130 0.750000
vt 0.618130 0.750000
vt 0.386365 0.750000
vt 0.386365 0.750000
vt 0.386365 0.750000
vt 0.386365 0.750000
vt 0.375317 0.692423
vt 0.375000 0.692423
vt 0.375000 0.989398
vt 0.375317 0.989398
vt 0.250000 0.964135
vt 0.250000 0.989398
vt 0.250000 0.692423
vt 0.250000 0.717685
vt 0.351184 0.717685
vt 0.351184 0.964135
vt 0.241067 0.964135
vt 0.241067 0.989398
vt 0.241067 0.692423
vt 0.241067 0.717685
vt 0.250550 0.964135
vt 0.250000 0.964135
vt 0.250000 0.989398
vt 0.250550 0.989398
vt 0.250550 0.692423
vt 0.250000 0.692423
vt 0.250000 0.717685
vt 0.250550 0.717685
vt 0.125000 0.692423
vt 0.125000 0.989398
vt 0.156469 0.964135
vt 0.156469 0.717685
vt 0.124805 0.692423
vt 0.124805 0.964299
vt 0.124805 0.989398
vt 0.375195 0.964301
vt 0.375195 0.692423
vt 0.375000 0.692423
vt 0.375000 0.989398
vt 0.375195 0.989398
vt 0.367381 0.989398
vt 0.367381 0.692423
vn -1.0000 0.0000 0.0000
vn 0.0000 0.0000 -1.0000
vn 1.0000 0.0000 0.0000
vn 0.0000 0.0000 1.0000
vn 0.0000 1.0000 0.0000
vn 0.0000 -0.3415 -0.9399
vn 0.0000 -0.9395 0.3427
vn 0.0000 -0.3415 0.9399
vn 0.0000 -0.9395 -0.3424
vn -1.0000 -0.0014 0.0000
vn 1.0000 0.0006 0.0000
vn 0.0000 0.3415 0.9399
vn 0.0000 0.9394 -0.3427
vn 0.0000 0.3414 -0.9399
vn 0.0000 0.8245 0.5659
vn 0.0000 -1.0000 0.0000
vn 0.0000 -0.4012 -0.9160
vn 0.0000 -0.9311 -0.3648
vn 0.0000 -0.9311 0.3648
vn 0.0000 -0.9310 -0.3649
vn 0.0000 -0.4012 0.9160
usemtl None
s off
f 17/1/1 3/2/1 29/3/1 45/4/1 44/5/1 48/6/1 47/7/1 36/8/1 35/9/1 60/10/1 59/11/1 58/12/1 30/13/1 5/14/1 24/15/1 1/16/1 7/17/1
f 17/1/2 7/17/2 15/18/2 20/19/2
f 49/20/3 43/21/3 31/22/3 14/23/3 20/19/3 15/18/3 10/24/3 21/25/3 11/26/3 32/27/3 62/28/3 63/29/3 64/30/3 37/31/3 38/32/3 50/33/3 52/34/3
f 21/25/4 10/24/4 1/35/4 24/36/4
f 27/37/5 10/24/5 15/18/5 28/38/5
f 26/39/5 28/38/5 15/18/5 7/40/5 1/41/5 10/24/5 27/37/5 25/42/5
f 3/43/6 14/44/6 31/45/6 33/46/6 29/47/6
f 17/48/7 20/49/7 14/44/7 3/50/7
f 34/51/8 32/52/8 11/53/8 5/54/8 30/55/8
f 21/56/9 24/57/9 5/58/9 11/53/9
f 8/59/3 2/60/3 23/61/3
f 54/62/3 55/63/3 4/64/3 18/65/3 8/59/3 6/66/3 39/67/3 40/68/3 53/69/3
f 8/59/1 23/61/1 6/66/1
f 18/65/4 19/70/4 16/71/4 8/59/4
f 16/71/10 19/70/10 13/72/10 9/73/10
f 12/74/1 22/75/1 9/73/1
f 41/76/1 42/77/1 12/74/1 13/72/1 57/78/1 56/79/1 51/80/1
f 13/72/11 12/74/11 9/73/11
f 2/81/2 9/73/2 22/75/2 23/82/2
f 26/83/4 8/59/4 16/71/4 28/84/4
f 57/85/12 13/86/12 4/87/12 55/88/12
f 18/89/13 4/90/13 13/86/13 19/91/13
f 39/92/14 6/93/14 12/94/14 42/95/14
f 6/96/15 23/97/15 22/98/15 12/94/15
f 25/99/3 2/60/3 8/59/3 26/83/3
f 9/73/2 2/81/2 25/100/2 27/101/2
f 16/71/1 9/73/1 27/101/1 28/84/1
f 32/102/16 34/103/16 61/104/16 62/105/16
f 46/106/16 33/107/16 31/108/16 43/109/16
f 34/103/16 30/110/16 58/111/16 61/104/16
f 45/112/16 29/113/16 33/107/16 46/106/16
f 60/114/17 35/115/17 37/116/17 64/117/17
f 41/118/18 38/119/18 37/116/18 35/115/18 36/120/18 40/121/18 39/122/18 42/123/18
f 38/119/19 41/118/19 51/124/19 50/125/19
f 40/121/19 36/120/19 47/126/19 53/127/19
f 51/128/20 56/129/20 52/130/20 50/131/20
f 47/132/20 48/133/20 54/134/20 53/135/20
f 44/136/19 49/137/19 52/130/19 56/129/19 57/138/19 55/139/19 54/134/19 48/133/19
f 44/136/21 45/140/21 46/141/21 43/142/21 49/137/21
f 61/143/17 58/144/17 59/145/17 63/146/17 62/147/17
f 64/148/18 63/146/18 59/145/18 60/149/18
o main
v -0.500000 0.250644 0.035355
v -0.500000 0.370326 0.125000
v -0.500000 -0.470344 -0.125000
v -0.500000 -0.470344 0.125000
v -0.500000 0.370326 0.125000
v -0.500000 0.370326 -0.125000
v -0.375000 0.370326 -0.125000
v -0.375000 0.370326 0.125000
v 0.497943 -0.470344 -0.125000
v 0.500000 -0.470344 -0.125000
v 0.500000 -0.470344 0.125000
v 0.375000 0.370326 0.125000
v 0.375000 0.370326 -0.125000
v 0.500000 0.370326 -0.125000
v 0.500000 0.370326 0.125000
v -0.500000 0.430374 0.062500
v -0.500000 0.430374 -0.062500
v -0.375000 0.430374 -0.062500
v -0.375000 0.430374 0.062500
v 0.375000 0.430374 0.062500
v 0.375000 0.430374 -0.062500
v 0.500000 0.430374 -0.062500
v 0.500000 0.430374 0.062500
v -0.500000 0.250644 0.035355
v -0.500000 0.250644 -0.035355
v -0.500000 0.264520 -0.000000
v -0.500110 0.217146 0.050000
v -0.500110 0.183648 0.035355
v -0.500158 0.250644 0.035355
v -0.500110 0.217146 -0.050000
v -0.500110 0.183648 -0.035355
v -0.500238 0.250644 -0.035355
v -0.499910 0.264520 -0.000000
v -0.500110 0.169772 0.000000
v 0.500000 0.217146 0.050000
v 0.500000 0.250644 0.035355
v 0.500000 0.183648 0.035355
v 0.500000 0.217146 -0.050000
v 0.500000 0.183648 -0.035355
v 0.500000 0.250644 -0.035355
v 0.500000 0.264520 -0.000000
v 0.500000 0.169772 0.000000
v 0.500000 0.217562 -0.049818
v 0.500000 0.184063 -0.035537
v 0.500000 0.183475 0.034916
v 0.500000 0.169944 -0.000439
v 0.498233 0.169968 -0.000500
v 0.498233 0.183452 0.034856
v 0.498233 0.184121 -0.035562
v 0.498233 0.217619 -0.049793
v -0.499287 -0.470344 -0.125000
v -0.300270 0.259820 -0.023126
v -0.500000 0.183648 -0.035355
v -0.500000 0.169772 0.000000
v -0.500000 0.217146 -0.050000
v -0.500000 0.250644 -0.035355
v -0.500000 0.217146 0.050000
v -0.500000 0.370326 -0.125000
v -0.500000 0.183648 0.035355
v 0.372531 0.370326 -0.125000
v 0.372531 0.370326 0.125000
v 0.372531 0.430374 -0.062500
v 0.372531 0.430374 0.062500
v 0.500000 0.430374 0.062500
v 0.500000 0.430374 -0.062500
v 0.500000 0.370326 0.125000
v 0.500000 0.370326 -0.125000
v 0.500000 0.370326 0.125000
v 0.500000 0.370326 -0.125000
v 0.500000 0.430374 -0.062500
v 0.500000 0.430374 0.062500
v -0.500000 0.250644 0.035355
v -0.500000 0.264520 -0.000000
v -0.500000 0.370326 -0.003876
v 0.120573 0.250644 -0.035355
v 0.120599 0.250644 0.035355
v 0.119212 0.264520 -0.000000
v 0.119957 0.253923 -0.027001
v -0.276061 0.250644 -0.035355
v -0.281168 0.250644 0.035355
v -0.273632 0.264520 -0.000000
v -0.122196 0.264520 -0.000000
v -0.125110 0.250283 -0.035256
v -0.121785 0.250644 0.035355
v -0.127259 0.430374 -0.062500
v -0.128033 0.430374 0.062500
v 0.128637 0.430374 -0.062500
v 0.127861 0.430374 0.062500
v -0.135202 0.430374 -0.062500
v 0.137918 0.410214 -0.088822
v -0.139381 0.410922 -0.086330
v 0.132253 0.430374 0.062500
v -0.140116 0.407939 0.085851
v 0.137199 0.408585 0.085178
vt 0.875000 0.500000
vt 0.939438 0.500000
vt 0.937500 0.444937
vt 0.919822 0.437716
vt 0.843750 0.062500
vt 1.000000 0.062500
vt 1.000000 0.500000
vt 0.937500 0.500000
vt 0.937500 0.500000
vt 0.937500 0.062500
vt 0.843750 0.062500
vt 0.857322 0.437716
vt 0.812500 0.500000
vt 0.812500 0.062500
vt 0.892678 0.437716
vt 0.900000 0.420282
vt 0.892678 0.402849
vt 0.875000 0.395628
vt 0.857322 0.402849
vt 0.850000 0.420282
vt 0.593750 0.375000
vt 0.656250 0.375000
vt 0.656250 0.406250
vt 0.593750 0.406250
vt 0.763572 0.437716
vt 0.718750 0.500000
vt 0.718750 0.062500
vt 0.843750 0.062500
vt 0.843750 0.500000
vt 0.798928 0.437716
vt 0.806159 0.420499
vt 0.806250 0.420282
vt 0.799019 0.403066
vt 0.798928 0.402849
vt 0.781470 0.395718
vt 0.781250 0.395628
vt 0.763792 0.402760
vt 0.763572 0.402849
vt 0.756250 0.420282
vt 0.781250 0.444937
vt 0.656250 0.406250
vt 0.656250 0.375000
vt 0.656250 0.375000
vt 0.656250 0.406250
vt 0.656250 0.468750
vt 0.593750 0.468750
vt 0.656250 0.500000
vt 0.593750 0.500000
vt 0.656250 0.343750
vt 0.595688 0.343750
vt 0.531250 0.343750
vt 0.562500 0.375000
vt 0.625000 0.375000
vt 0.656250 0.468750
vt 0.656250 0.478873
vt 0.656250 0.479242
vt 0.656250 0.468750
vt 0.656250 0.468750
vt 0.656250 0.500000
vt 0.843750 0.062500
vt 0.843750 0.500000
vt 0.843750 0.500000
vt 0.781250 0.500000
vt 0.781250 0.062500
vt 0.812500 0.500000
vt 0.937500 0.500000
vt 0.812500 0.500000
vt 0.843750 0.500000
vt 0.718750 0.500000
vt 0.718750 0.500000
vt 0.843750 0.500000
vt 0.656250 0.468750
vt 0.843750 0.000000
vt 0.937500 0.000000
vt 0.875000 0.993793
vt 0.876552 0.993794
vt 0.876767 0.992932
vt 1.000000 0.993793
vt 1.000000 0.932845
vt 0.875000 0.932845
vt 0.751552 0.993793
vt 0.750000 0.932845
vt 0.750000 0.993793
vt 0.751767 0.992932
vt 0.625000 0.993793
vt 0.626552 0.993793
vt 0.626767 0.992932
vt 0.625000 0.932845
vt 0.500000 0.932845
vt 0.500000 0.993793
vt 0.375000 0.932845
vt 0.375000 0.946746
vt 0.375000 0.956085
vt 0.375000 0.970673
vt 0.375000 0.993793
vt 0.250000 0.947212
vt 0.125000 0.947074
vt 0.125000 0.956323
vt 0.250000 0.956433
vt 0.000000 0.993793
vt 0.001552 0.993793
vt 0.001767 0.992932
vt 0.125000 0.993793
vt 0.125000 0.970674
vt 0.125000 0.932845
vt 0.000000 0.932845
vt 0.656250 0.500000
vt 0.656250 0.406250
vt 0.656250 0.394911
vt 0.656250 0.394574
vt 0.656250 0.406250
vt 0.656250 0.468750
vt 0.531250 0.343750
vt 0.656250 0.343750
vt 0.625000 0.375000
vt 0.562500 0.375000
vt 0.562500 0.375000
vt 0.625000 0.375000
vt 0.625000 0.375000
vt 0.562500 0.375000
vt 0.656250 0.468750
vt 0.562500 0.375000
vt 0.593750 0.406250
vt 0.656250 0.406250
vt 0.656250 0.406250
vt 0.656250 0.468750
vt 0.937500 0.444937
vt 0.919822 0.437716
vt 1.000000 0.500000
vt 0.955178 0.437716
vt 0.250000 0.970583
vt 0.250000 0.993793
vt 0.154538 0.970634
vt 0.250000 0.932845
vt 0.656250 0.406250
vn -1.0000 -0.0000 0.0000
vn 0.0000 -0.2847 0.9586
vn -0.0000 0.7211 0.6928
vn 1.0000 0.0000 0.0000
vn 0.0000 1.0000 0.0000
vn -0.0000 0.7211 -0.6928
vn 0.0003 0.7107 -0.7035
vn -0.0000 -0.0000 -1.0000
vn 0.0000 -1.0000 0.0000
vn 0.0000 0.4006 0.9163
vn -0.0000 0.9309 0.3653
vn 0.0000 0.9309 0.3654
vn 0.0000 0.9309 -0.3654
vn 0.0000 0.9309 -0.3653
vn 0.0000 0.4006 -0.9163
vn 0.0000 -0.4006 -0.9163
vn -0.0012 -0.9290 0.3700
vn 0.0000 -0.9309 -0.3653
vn -0.0000 -0.4006 0.9163
vn -0.0000 -0.4017 0.9158
vn 0.0000 0.0000 1.0000
vn 0.0000 -0.9309 0.3653
usemtl (null)
s off
f 69/150/22 138/151/22 90/152/22 88/153/22
f 73/154/23 75/155/23 79/156/23 76/157/23 66/158/23 68/159/23 115/160/23
f 120/161/22 122/162/22 67/163/22 68/159/22 66/158/22 65/164/22 121/165/22 123/166/22 118/167/22 117/168/22 119/169/22
f 69/170/24 72/171/24 83/172/24 80/173/24
f 100/174/25 79/175/25 75/176/25 74/177/25 78/178/25 104/179/25 107/180/25 102/181/25 108/182/25 103/183/25 110/184/25 106/185/25 109/186/25 101/187/25 99/188/25
f 104/179/25 78/178/25 79/175/25 100/174/25 105/189/25
f 127/190/24 125/191/24 132/192/24 135/193/24
f 83/172/26 82/194/26 81/195/26 80/173/26
f 71/196/27 70/197/27 81/195/27 82/194/27
f 70/198/22 138/199/22 69/200/22 80/201/22 81/202/22
f 71/196/28 82/194/28 153/203/28 155/204/28 154/205/28 151/206/28 126/207/28 124/208/28
f 73/154/29 115/160/29 67/209/29 122/210/29 77/211/29 78/212/29 74/213/29
f 77/214/26 76/157/26 130/215/26 131/216/26
f 125/217/30 124/218/30 133/219/30 132/220/30
f 126/207/26 127/190/26 135/193/26 134/221/26
f 73/154/30 74/222/30 75/223/30
f 103/224/31 108/225/31 113/226/31
f 108/225/31 102/227/31 94/228/31 95/229/31 103/224/31 113/226/31
f 110/230/32 103/224/32 95/229/32 98/231/32 106/232/32 111/233/32
f 106/232/33 110/230/33 111/233/33
f 101/234/34 109/235/34 112/236/34
f 109/235/35 106/232/35 98/231/35 92/237/35 101/234/35 112/236/35
f 101/234/36 92/237/36 91/238/36 99/239/36
f 99/239/37 91/238/37 93/240/37 144/241/37 148/242/37 140/243/37 100/244/37
f 145/245/38 143/246/38 147/247/38 146/248/38
f 145/245/39 146/248/39 148/242/39 144/241/39
f 102/249/40 107/250/40 114/251/40
f 107/250/41 104/252/41 139/253/41 147/247/41 143/246/41 96/254/41 94/255/41 102/249/41 114/251/41
f 115/160/30 68/159/30 67/209/30
f 124/208/27 126/207/27 134/221/27 133/256/27
f 83/172/24 72/171/24 125/191/24 127/190/24 156/257/24 158/258/24 157/259/24 150/260/24
f 82/194/26 83/172/26 150/260/26 149/261/26 153/203/26
f 132/262/25 133/263/25 134/264/25 135/265/25
f 87/266/42 86/267/42 129/268/42 128/269/42
f 86/270/26 85/271/26 84/272/26 87/273/26 128/274/26 129/275/26
f 88/153/42 90/152/42 137/276/42 136/277/42
f 90/152/22 138/151/22 70/278/22 89/279/22
f 140/243/39 141/280/39 105/281/39 100/244/39
f 141/280/43 142/282/43 139/253/43 104/252/43 105/281/43
f 97/283/39 145/245/39 144/241/39 93/240/39
f 97/283/43 96/254/43 143/246/43 145/245/43
f 151/206/26 152/284/26 156/257/26 127/190/26 126/207/26
o Minecraft_Block_Cube
v 0.500000 -0.500000 -0.500000
v 0.500000 -0.500000 0.500000
v -0.500000 -0.500000 0.500000
v -0.500000 -0.500000 -0.500000
v 0.500000 0.500000 -0.500000
v 0.500000 0.500000 0.500000
v -0.500000 0.500000 0.500000
v -0.500000 0.500000 -0.500000
vn 0.0000 -1.0000 0.0000
vn 0.0000 1.0000 0.0000
vn 1.0000 0.0000 0.0000
vn -0.0000 -0.0000 1.0000
vn -1.0000 -0.0000 -0.0000
vn 0.0000 0.0000 -1.0000
usemtl Material
s off
f 159//44 160//44 161//44 162//44
f 163//45 166//45 165//45 164//45
f 159//46 163//46 164//46 160//46
f 160//47 164//47 165//47 161//47
f 161//48 165//48 166//48 162//48
f 163//49 159//49 162//49 166//49
