# Blender v3.2.2 OBJ File: 'WIPCube.blend'
# www.blender.org
mtllib WIPCube.mtl
o Cube
v 0.500000 -0.500000 -0.500000
v 0.500000 -0.500000 0.500000
v -0.500000 -0.500000 0.500000
v -0.500000 -0.500000 -0.500000
v 0.500000 0.500000 -0.500000
v 0.500000 0.500000 0.500000
v -0.500000 0.500000 0.500000
v -0.500000 0.500000 -0.500000
vt 0.999900 0.000100
vt 0.000100 0.999900
vt 0.000100 0.000100
vt 0.000100 0.000100
vt 0.999900 0.999900
vt 0.000100 0.999900
vt 0.999900 0.999900
vt 0.000100 0.000100
vt 0.999900 0.999900
vt 0.000100 0.999900
vt 0.000100 0.000100
vt 0.999900 0.999900
vt 0.999900 0.000100
vt 0.000100 0.999900
vt 0.000100 0.000100
vt 0.999900 0.000100
vt 0.999900 0.999900
vn 0.0000 -1.0000 0.0000
vn 0.0000 1.0000 -0.0000
vn 1.0000 -0.0000 0.0000
vn -0.0000 -0.0000 1.0000
vn -1.0000 -0.0000 -0.0000
vn 0.0000 0.0000 -1.0000
usemtl Cube
s off
f 2/1/1 4/2/1 1/3/1
f 8/4/2 6/5/2 5/6/2
f 5/6/3 2/1/3 1/7/3
f 6/8/4 3/9/4 2/10/4
f 3/11/5 8/12/5 4/2/5
f 1/13/6 8/14/6 5/15/6
f 2/1/1 3/9/1 4/2/1
f 8/4/2 7/16/2 6/5/2
f 5/6/3 6/8/3 2/1/3
f 6/8/4 7/16/4 3/9/4
f 3/11/5 7/16/5 8/12/5
f 1/13/6 4/17/6 8/14/6
